# xmcd
#
# Track frame offsets:
# 150
# 12240
# 24247
# 38302
# 50822
# 62958
# 75006
# 89110
# 99487
# 110425
# 125988
# 134663
# 150078
# 165288
# 178803
# 189151
# 204558
# 220416
#
# Disc length: 3095 seconds
#
#
# Revision: 0
# Processed by: cddbd v1.5.2PL0 Copyright (c) Steve Scherf et al.
# Submitted via: FreeRIP 2.944 
#
DISCID=ea0c1512
DTITLE=The Midday Ramblers - Run Mountain... Chuck a little Hill
DYEAR=2008
DGENRE=Bluegrass
TTITLE0=Give Me The Chance To Let You Down (Willis)
TTITLE1=Run Mountain (trad)
TTITLE2=Dry Bones (trad)
TTITLE3=Drive, Drive, Drive (John R. Cash)
TTITLE4=Wishful Drinkin' (Willis, Jon Harrison)
TTITLE5=Waiting For The Sun To Shine (Horan)
TTITLE6=DMB (Posch)
TTITLE7=Coffee, Coffee, Coffee (Larry Dexter/D.C. Mullins)
TTITLE8=Banjo Collector (Posch, MDRs)
TTITLE9=The Honky Tonks Are Calling Me Again (Ray Pennington)
TTITLE10=Big Town Baby (Paul Angel)
TTITLE11=River Of Jordan (trad)
TTITLE12=Last Train (Willis)
TTITLE13=Five String Addiction (Posch)
TTITLE14=Are You Waiting Just For Me? (Ernest Tubb)
TTITLE15=In This Bottle Somewhere (Ed Skoog, Eric Henry, Schmidt)
TTITLE16=Old Rueben #9 (trad)
TTITLE17=Sparrowhawk (Horan)
EXTD=Bluegill Records- BG004
EXTT0=
EXTT1=
EXTT2=
EXTT3=
EXTT4=
EXTT5=
EXTT6=
EXTT7=
EXTT8=
EXTT9=
EXTT10=
EXTT11=
EXTT12=
EXTT13=
EXTT14=
EXTT15=
EXTT16=
EXTT17=
PLAYORDER=
